<?xml version="1.0" encoding="UTF-8"?>
<svg width="160" height="180" fill="none" version="1.1" viewBox="35 20 185 195" xmlns="http://www.w3.org/2000/svg">
  <g filter="url(#filter0_f)">
    <rect x="59" y="51.001" width="136" height="160" rx="32" fill="url(#paint0_linear)" />
  </g>
  <rect x="42" y="31.001" width="169.9" height="169.9" rx="49.815" fill="url(#paint1_linear)" />
  <path d="M127,67 L169,91 L169,140 L127,116 Z" fill="url(#paint2_linear)" fill-opacity="0.4" />
  <path d="M169,140 L127,164 L85,140 L127,116 Z" fill="url(#paint2_linear)" fill-opacity="0.25" />
  <path d="M85,140 L85,91 L127,67 L127,116 Z" fill="url(#paint2_linear)" fill-opacity="0.55" />
  <path d="M127,67 L169,91 L169,140 L127,164 L85,140 L85,91 Z" fill="none" stroke="white" stroke-width="8"
    stroke-linejoin="round" />
  <line x1="127" y1="116" x2="127" y2="67" stroke="white" stroke-width="8" stroke-linecap="round" />
  <line x1="127" y1="116" x2="85" y2="140" stroke="white" stroke-width="8" stroke-linecap="round" />
  <line x1="162" y1="56" x2="152" y2="116" stroke="#FFE466" stroke-width="8" stroke-linecap="round" opacity="0.9" />
  <line x1="152" y1="116" x2="122" y2="146" stroke="rgba(255,227,102,0.538)" stroke-width="8" stroke-linecap="round"
    opacity="0.7" />
  <line x1="122" y1="146" x2="72" y2="166" stroke="#ffe366" stroke-width="8" stroke-linecap="round" opacity="0.9" />
  <line x1="127" y1="116" x2="169" y2="140" stroke="white" stroke-width="8" stroke-linecap="round" />
  <defs>
    <filter id="filter0_f" x="55" y="47.001" width="144" height="168" color-interpolation-filters="sRGB"
      filterUnits="userSpaceOnUse">
      <feFlood flood-opacity="0" result="BackgroundImageFix" />
      <feBlend in="SourceGraphic" in2="BackgroundImageFix" result="shape" />
      <feGaussianBlur result="effect1_foregroundBlur" stdDeviation="2" />
    </filter>
    <linearGradient id="paint0_linear" x1="127" x2="127" y1="51.001" y2="211" gradientUnits="userSpaceOnUse">
      <stop offset=".052083" />
      <stop stop-opacity=".08" offset="1" />
    </linearGradient>
    <linearGradient id="paint1_linear" x1="212" x2="57.5" y1="31.001" y2="189" gradientUnits="userSpaceOnUse">
      <stop stop-color="#00A3FF" offset="0" />
      <stop stop-color="#30f" offset="1" />
    </linearGradient>
    <linearGradient id="paint2_linear" x1="86.098" x2="206.01" y1="158.28" y2="35.327" gradientUnits="userSpaceOnUse">
      <stop stop-color="#fff" offset="0" />
      <stop stop-color="#fff" offset="1" />
    </linearGradient>
  </defs>
</svg>